<?xml version="1.0" encoding="UTF-8"?>
<!DOCTYPE svg PUBLIC "-//W3C//DTD SVG 1.1//EN" "http://www.w3.org/Graphics/SVG/1.1/DTD/svg11.dtd">
<svg xmlns="http://www.w3.org/2000/svg" version="1.1" width="499px" height="300px" style="shape-rendering:geometricPrecision; text-rendering:geometricPrecision; image-rendering:optimizeQuality; fill-rule:evenodd; clip-rule:evenodd" xmlns:xlink="http://www.w3.org/1999/xlink">
<g><path style="opacity:1" fill="#fd5f49" d="M 118.5,13.5 C 119.833,32.5 121.167,51.5 122.5,70.5C 138.833,70.5 155.167,70.5 171.5,70.5C 172.167,51.8333 172.833,33.1667 173.5,14.5C 176.784,16.117 179.451,18.4503 181.5,21.5C 181.427,23.0269 182.094,24.0269 183.5,24.5C 194.959,39.6617 197.459,56.3283 191,74.5C 186.38,86.6169 178.213,95.2835 166.5,100.5C 165.508,100.328 164.842,100.662 164.5,101.5C 149.3,107.566 134.633,106.566 120.5,98.5C 119.52,101.086 119.187,103.753 119.5,106.5C 119.821,111.695 119.487,116.695 118.5,121.5C 118.831,113.472 118.498,105.472 117.5,97.5C 115.812,96.4787 114.479,95.1454 113.5,93.5C 112.415,91.4131 110.749,90.0798 108.5,89.5C 107.833,88.5 107.167,87.5 106.5,86.5C 106.446,84.368 105.446,83.0347 103.5,82.5C 101.659,80.1515 100.326,77.4848 99.5,74.5C 99.5979,72.4471 98.9313,70.7804 97.5,69.5C 97.2474,65.9601 96.5808,62.6267 95.5,59.5C 94.1667,56.1667 94.1667,52.8333 95.5,49.5C 96.913,46.7814 97.5797,43.7814 97.5,40.5C 97.4021,38.4471 98.0687,36.7804 99.5,35.5C 100.674,34.4863 101.34,33.153 101.5,31.5C 102.906,31.0269 103.573,30.0269 103.5,28.5C 103.738,26.5956 104.738,25.2623 106.5,24.5C 108.587,23.4154 109.92,21.7488 110.5,19.5C 112.404,19.2624 113.738,18.2624 114.5,16.5C 115.262,14.7376 116.596,13.7376 118.5,13.5 Z"/></g>
<g><path style="opacity:0.519" fill="#fdada2" d="M 173.5,14.5 C 172.833,33.1667 172.167,51.8333 171.5,70.5C 171.167,51.4883 171.5,32.4883 172.5,13.5C 173.107,13.6236 173.44,13.9569 173.5,14.5 Z"/></g>
<g><path style="opacity:0.761" fill="#ffac9f" d="M 114.5,16.5 C 113.738,18.2624 112.404,19.2624 110.5,19.5C 111.262,17.7376 112.596,16.7376 114.5,16.5 Z"/></g>
<g><path style="opacity:0.706" fill="#ffb4a7" d="M 110.5,19.5 C 109.92,21.7488 108.587,23.4154 106.5,24.5C 107.08,22.2512 108.413,20.5846 110.5,19.5 Z"/></g>
<g><path style="opacity:0.761" fill="#ffb8ac" d="M 181.5,21.5 C 182.906,21.9731 183.573,22.9731 183.5,24.5C 182.094,24.0269 181.427,23.0269 181.5,21.5 Z"/></g>
<g><path style="opacity:0.646" fill="#fd9d8f" d="M 122.5,70.5 C 121.167,51.5 119.833,32.5 118.5,13.5C 118.811,12.5222 119.478,11.8555 120.5,11.5C 121.178,31.2312 121.845,50.8978 122.5,70.5 Z"/></g>
<g><path style="opacity:0.369" fill="#ffc7bf" d="M 103.5,28.5 C 103.573,30.0269 102.906,31.0269 101.5,31.5C 101.427,29.9731 102.094,28.9731 103.5,28.5 Z"/></g>
<g><path style="opacity:0.098" fill="#ffd7ce" d="M 101.5,31.5 C 101.34,33.153 100.674,34.4863 99.5,35.5C 99.2291,33.6203 99.8958,32.287 101.5,31.5 Z"/></g>
<g><path style="opacity:0.549" fill="#ffb9ae" d="M 97.5,40.5 C 97.5797,43.7814 96.913,46.7814 95.5,49.5C 95.4203,46.2186 96.087,43.2186 97.5,40.5 Z"/></g>
<g><path style="opacity:0.282" fill="#ffcec6" d="M 95.5,59.5 C 96.5808,62.6267 97.2474,65.9601 97.5,69.5C 95.8255,66.4928 95.1588,63.1595 95.5,59.5 Z"/></g>
<g><path style="opacity:1" fill="#4a515e" d="M 90.5,72.5 C 90.427,74.0269 91.0937,75.0269 92.5,75.5C 94.579,79.9926 96.9123,84.326 99.5,88.5C 100.08,90.7488 101.413,92.4154 103.5,93.5C 106.029,95.2655 108.362,97.2655 110.5,99.5C 109.812,100.855 108.812,101.855 107.5,102.5C 105.973,102.427 104.973,103.094 104.5,104.5C 104.5,105.167 104.167,105.5 103.5,105.5C 101.738,106.262 100.738,107.596 100.5,109.5C 100.167,110.5 99.5,111.167 98.5,111.5C 97.0937,111.973 96.427,112.973 96.5,114.5C 92.7139,120.736 90.0472,127.403 88.5,134.5C 86.8377,138.446 86.5044,142.446 87.5,146.5C 87.0834,150.817 87.7501,154.817 89.5,158.5C 90.7837,161.402 91.7837,164.402 92.5,167.5C 92.427,169.027 93.0937,170.027 94.5,170.5C 95.3382,170.842 95.6716,171.508 95.5,172.5C 95.427,174.027 96.0937,175.027 97.5,175.5C 100.138,178.474 102.805,181.474 105.5,184.5C 106.11,185.391 106.443,186.391 106.5,187.5C 101.188,192.146 96.1877,197.146 91.5,202.5C 87.3575,200.191 84.0242,197.024 81.5,193C 75.1511,193.558 68.8177,194.225 62.5,195C 58.3099,189.787 55.3099,183.953 53.5,177.5C 53.4326,176.041 53.7659,174.708 54.5,173.5C 58.7372,170.772 62.5706,167.439 66,163.5C 66.765,161.934 66.5983,160.601 65.5,159.5C 65.5,158.833 65.5,158.167 65.5,157.5C 66.069,153.671 65.4023,150.337 63.5,147.5C 63.33,146.178 63.6634,145.011 64.5,144C 59.608,141.724 54.9413,139.224 50.5,136.5C 51.3901,131.215 52.7234,126.049 54.5,121C 54.3552,120.228 54.0219,119.561 53.5,119C 54.8584,118.066 56.1917,117.232 57.5,116.5C 61.9017,115.906 66.235,114.906 70.5,113.5C 71.9409,110.276 73.6076,107.276 75.5,104.5C 77.5195,103.462 77.8528,102.128 76.5,100.5C 73.9138,96.3291 71.5804,91.9958 69.5,87.5C 69.5743,85.5891 70.5743,84.4224 72.5,84C 71.4019,83.2303 71.4019,82.397 72.5,81.5C 72.5,80.8333 72.8333,80.5 73.5,80.5C 75.5,79.1667 77.1667,77.5 78.5,75.5C 81.6079,69.5635 85.6079,68.5635 90.5,72.5 Z"/></g>
<g><path style="opacity:0.545" fill="#ffbfb6" d="M 97.5,69.5 C 98.9313,70.7804 99.5979,72.4471 99.5,74.5C 98.0687,73.2196 97.4021,71.5529 97.5,69.5 Z"/></g>
<g><path style="opacity:0.157" fill="#ccd0d3" d="M 90.5,72.5 C 91.9063,72.9731 92.573,73.9731 92.5,75.5C 91.0937,75.0269 90.427,74.0269 90.5,72.5 Z"/></g>
<g><path style="opacity:0.42" fill="#cbced0" d="M 78.5,75.5 C 77.1667,77.5 75.5,79.1667 73.5,80.5C 74.1667,77.8333 75.8333,76.1667 78.5,75.5 Z"/></g>
<g><path style="opacity:1" fill="#ffb2a3" d="M 103.5,82.5 C 105.446,83.0347 106.446,84.368 106.5,86.5C 105.026,85.5637 104.026,84.2303 103.5,82.5 Z"/></g>
<g><path style="opacity:1" fill="#9599a0" d="M 72.5,81.5 C 71.4019,82.397 71.4019,83.2303 72.5,84C 70.5743,84.4224 69.5743,85.5891 69.5,87.5C 68.4265,86.7494 68.2599,85.7494 69,84.5C 69.7589,82.9371 70.9256,81.9371 72.5,81.5 Z"/></g>
<g><path style="opacity:0.706" fill="#bdc0c4" d="M 99.5,88.5 C 101.587,89.5846 102.92,91.2512 103.5,93.5C 101.413,92.4154 100.08,90.7488 99.5,88.5 Z"/></g>
<g><path style="opacity:0.663" fill="#ffc6bd" d="M 108.5,89.5 C 110.749,90.0798 112.415,91.4131 113.5,93.5C 111.251,92.9202 109.585,91.5869 108.5,89.5 Z"/></g>
<g><path style="opacity:1" fill="#d73329" d="M 164.5,101.5 C 164.5,103.5 164.5,105.5 164.5,107.5C 149.305,114.437 134.305,114.104 119.5,106.5C 119.187,103.753 119.52,101.086 120.5,98.5C 134.633,106.566 149.3,107.566 164.5,101.5 Z"/></g>
<g><path style="opacity:0.2" fill="#dbdcde" d="M 76.5,100.5 C 77.8528,102.128 77.5195,103.462 75.5,104.5C 75.8333,103.167 76.1667,101.833 76.5,100.5 Z"/></g>
<g><path style="opacity:0.012" fill="#e2e2e4" d="M 107.5,102.5 C 107.027,103.906 106.027,104.573 104.5,104.5C 104.973,103.094 105.973,102.427 107.5,102.5 Z"/></g>
<g><path style="opacity:0.024" fill="#e3e4e6" d="M 103.5,105.5 C 103.262,107.404 102.262,108.738 100.5,109.5C 100.738,107.596 101.738,106.262 103.5,105.5 Z"/></g>
<g><path style="opacity:1" fill="#fe5b45" d="M 119.5,106.5 C 134.305,114.104 149.305,114.437 164.5,107.5C 163.929,130.496 163.595,153.496 163.5,176.5C 162.566,177.568 162.232,178.901 162.5,180.5C 147.697,173.056 132.697,172.722 117.5,179.5C 118.223,160.175 118.557,140.842 118.5,121.5C 119.487,116.695 119.821,111.695 119.5,106.5 Z"/></g>
<g><path style="opacity:0.008" fill="#d8d9df" d="M 98.5,111.5 C 98.573,113.027 97.9063,114.027 96.5,114.5C 96.427,112.973 97.0937,111.973 98.5,111.5 Z"/></g>
<g><path style="opacity:0.529" fill="#ffb3a7" d="M 350.5,120.5 C 352.048,120.179 352.715,119.179 352.5,117.5C 346.132,117.17 339.798,117.504 333.5,118.5C 334.689,119.429 336.022,119.762 337.5,119.5C 333.652,122.867 331.986,121.867 332.5,116.5C 339.5,116.5 346.5,116.5 353.5,116.5C 353.5,118.167 353.5,119.833 353.5,121.5C 352.209,121.737 351.209,121.404 350.5,120.5 Z"/></g>
<g><path style="opacity:0.298" fill="#ffd1cb" d="M 379.5,118.5 C 376.939,117.233 374.272,117.233 371.5,118.5C 372.514,117.235 374.014,116.569 376,116.5C 377.5,116.833 379,117.167 380.5,117.5C 380.376,118.107 380.043,118.44 379.5,118.5 Z"/></g>
<g><path style="opacity:1" fill="#ff715a" d="M 250.5,117.5 C 263.167,117.5 275.833,117.5 288.5,117.5C 288.5,119.167 288.5,120.833 288.5,122.5C 287.5,122.5 286.5,122.5 285.5,122.5C 283.485,121.076 281.152,120.41 278.5,120.5C 276.297,120.065 274.297,120.065 272.5,120.5C 271.833,119.833 271.167,119.167 270.5,118.5C 269.5,118.833 268.833,119.5 268.5,120.5C 269.263,121.268 270.263,121.768 271.5,122C 270.207,122.49 268.873,122.657 267.5,122.5C 267.762,121.022 267.429,119.689 266.5,118.5C 265.893,118.624 265.56,118.957 265.5,119.5C 260.336,121.458 255.003,122.791 249.5,123.5C 249.205,121.265 249.539,119.265 250.5,117.5 Z M 270.5,118.5 C 270.5,119.833 269.833,120.5 268.5,120.5C 268.833,119.5 269.5,118.833 270.5,118.5 Z"/></g>
<g><path style="opacity:1" fill="#ff7b66" d="M 305.5,146.5 C 303.326,146.25 301.659,145.25 300.5,143.5C 300.5,142.833 300.5,142.167 300.5,141.5C 301.167,141.5 301.5,141.167 301.5,140.5C 303.745,139.708 304.078,138.375 302.5,136.5C 301.272,132.816 301.272,129.15 302.5,125.5C 302.5,125.167 302.5,124.833 302.5,124.5C 303.968,123.194 305.301,121.694 306.5,120C 305.167,119.667 303.833,119.333 302.5,119C 303.094,118.536 303.761,118.369 304.5,118.5C 309.39,116.93 314.39,116.43 319.5,117C 328.291,121.307 331.124,128.141 328,137.5C 325.974,141.026 323.141,143.693 319.5,145.5C 323.393,151.952 326.726,158.619 329.5,165.5C 327.076,165.808 324.743,165.474 322.5,164.5C 319.167,158.5 315.833,152.5 312.5,146.5C 310.282,145.943 307.949,145.943 305.5,146.5 Z M 322.5,137.5 C 321.167,138.167 320.167,139.167 319.5,140.5C 315.975,141.994 312.642,141.661 309.5,139.5C 308.833,138.167 307.833,137.167 306.5,136.5C 304.668,128.829 307.501,123.829 315,121.5C 323.573,124.067 326.073,129.4 322.5,137.5 Z"/></g>
<g><path style="opacity:1" fill="#ff6650" d="M 350.5,120.5 C 349.391,120.443 348.391,120.11 347.5,119.5C 346.295,118.314 344.961,118.314 343.5,119.5C 341.5,118.167 339.5,118.167 337.5,119.5C 336.022,119.762 334.689,119.429 333.5,118.5C 339.798,117.504 346.132,117.17 352.5,117.5C 352.715,119.179 352.048,120.179 350.5,120.5 Z"/></g>
<g><path style="opacity:1" fill="#ff7b65" d="M 360.5,122.5 C 358.901,122.232 357.568,122.566 356.5,123.5C 356.5,123.833 356.5,124.167 356.5,124.5C 356.148,127.073 356.648,129.406 358,131.5C 358.49,130.207 358.657,128.873 358.5,127.5C 358.5,127.167 358.5,126.833 358.5,126.5C 359.404,127.209 359.737,128.209 359.5,129.5C 359.337,131.857 359.503,134.19 360,136.5C 361.03,134.654 362.196,132.987 363.5,131.5C 364.906,131.027 365.573,130.027 365.5,128.5C 365.328,127.508 365.662,126.842 366.5,126.5C 367.906,126.027 368.573,125.027 368.5,123.5C 369.11,121.566 370.11,119.899 371.5,118.5C 374.272,117.233 376.939,117.233 379.5,118.5C 374.419,124.908 369.752,131.575 365.5,138.5C 365.427,140.027 366.094,141.027 367.5,141.5C 371.559,147.266 375.392,153.266 379,159.5C 379.813,161.436 380.313,163.436 380.5,165.5C 378.278,165.822 376.444,165.155 375,163.5C 371.236,157.637 367.736,151.637 364.5,145.5C 364.218,144.222 363.551,143.222 362.5,142.5C 361.5,141.167 360.5,141.167 359.5,142.5C 358.377,144.979 358.377,147.312 359.5,149.5C 359.5,150.5 359.5,151.5 359.5,152.5C 359.737,153.791 359.404,154.791 358.5,155.5C 358.5,155.167 358.5,154.833 358.5,154.5C 358.719,153.325 358.386,152.325 357.5,151.5C 356.534,153.396 356.201,155.396 356.5,157.5C 356.5,157.833 356.5,158.167 356.5,158.5C 356.167,158.5 355.833,158.5 355.5,158.5C 355.5,145.5 355.5,132.5 355.5,119.5C 356.156,120.278 356.989,120.944 358,121.5C 358.765,121.43 359.265,121.097 359.5,120.5C 359.5,120.167 359.5,119.833 359.5,119.5C 358.5,118.833 357.5,118.167 356.5,117.5C 361.243,115.923 362.576,117.589 360.5,122.5 Z M 356.5,124.5 C 356.5,124.167 356.5,123.833 356.5,123.5C 358.048,123.821 358.715,124.821 358.5,126.5C 358.5,126.833 358.5,127.167 358.5,127.5C 357.833,126.5 357.167,125.5 356.5,124.5 Z M 359.5,142.5 C 360.5,141.167 361.5,141.167 362.5,142.5C 361.5,143.833 360.5,143.833 359.5,142.5 Z"/></g>
<g><path style="opacity:1" fill="#606672" d="M 57.5,116.5 C 56.1917,117.232 54.8584,118.066 53.5,119C 54.0219,119.561 54.3552,120.228 54.5,121C 52.7234,126.049 51.3901,131.215 50.5,136.5C 54.9413,139.224 59.608,141.724 64.5,144C 63.6634,145.011 63.33,146.178 63.5,147.5C 58.6143,145.542 53.9476,143.209 49.5,140.5C 48.6314,138.283 48.298,135.95 48.5,133.5C 48.1984,130.941 48.5318,128.607 49.5,126.5C 51.0395,124.162 51.7062,121.495 51.5,118.5C 52.9899,116.72 54.9899,116.054 57.5,116.5 Z"/></g>
<g><path style="opacity:0.294" fill="#fecec6" d="M 166.5,100.5 C 165.467,125.771 164.467,151.105 163.5,176.5C 163.595,153.496 163.929,130.496 164.5,107.5C 164.5,105.5 164.5,103.5 164.5,101.5C 164.842,100.662 165.508,100.328 166.5,100.5 Z"/></g>
<g><path style="opacity:1" fill="#ff836f" d="M 191.5,123.5 C 191.167,124.833 190.833,126.167 190.5,127.5C 189.833,127.833 189.167,128.167 188.5,128.5C 187.167,127.833 185.833,127.167 184.5,126.5C 189.197,125.126 189.531,123.126 185.5,120.5C 183.712,121.283 182.712,122.616 182.5,124.5C 181.732,123.737 181.232,122.737 181,121.5C 180.617,122.056 180.117,122.389 179.5,122.5C 180.618,117.746 183.618,116.246 188.5,118C 190.607,119.264 191.607,121.097 191.5,123.5 Z"/></g>
<g><path style="opacity:0.729" fill="#ffc2b9" d="M 298.5,117.5 C 300.735,117.205 302.735,117.539 304.5,118.5C 303.761,118.369 303.094,118.536 302.5,119C 303.833,119.333 305.167,119.667 306.5,120C 305.301,121.694 303.968,123.194 302.5,124.5C 301.493,122.523 301.493,122.857 302.5,125.5C 301.272,129.15 301.272,132.816 302.5,136.5C 301.566,137.568 301.232,138.901 301.5,140.5C 301.5,141.167 301.167,141.5 300.5,141.5C 300.666,135.491 300.499,129.491 300,123.5C 298.612,124.554 297.112,124.72 295.5,124C 294.209,122.708 294.209,121.542 295.5,120.5C 296.609,119.71 297.942,119.21 299.5,119C 298.944,118.617 298.611,118.117 298.5,117.5 Z"/></g>
<g><path style="opacity:0.898" fill="#ffbaaf" d="M 356.5,117.5 C 357.5,118.167 358.5,118.833 359.5,119.5C 356.833,119.833 356.833,120.167 359.5,120.5C 359.265,121.097 358.765,121.43 358,121.5C 356.989,120.944 356.156,120.278 355.5,119.5C 355.328,118.508 355.662,117.842 356.5,117.5 Z"/></g>
<g><path style="opacity:0.925" fill="#ffa598" d="M 337.5,119.5 C 339.5,118.167 341.5,118.167 343.5,119.5C 344.961,118.314 346.295,118.314 347.5,119.5C 345.179,121.09 344.179,123.423 344.5,126.5C 343.662,126.158 343.328,125.492 343.5,124.5C 343.44,123.957 343.107,123.624 342.5,123.5C 341.571,124.689 341.238,126.022 341.5,127.5C 340.833,126.167 340.167,124.833 339.5,123.5C 339.843,121.517 339.176,120.183 337.5,119.5 Z"/></g>
<g><path style="opacity:0.988" fill="#ff9b89" d="M 278.5,120.5 C 281.152,120.41 283.485,121.076 285.5,122.5C 282.848,122.59 280.515,121.924 278.5,120.5 Z"/></g>
<g><path style="opacity:1" fill="#ff7059" d="M 298.5,117.5 C 298.611,118.117 298.944,118.617 299.5,119C 297.942,119.21 296.609,119.71 295.5,120.5C 294.209,121.542 294.209,122.708 295.5,124C 297.112,124.72 298.612,124.554 300,123.5C 300.499,129.491 300.666,135.491 300.5,141.5C 300.5,142.167 300.5,142.833 300.5,143.5C 300.527,145.199 301.194,146.533 302.5,147.5C 301.795,153.045 300.961,158.712 300,164.5C 297.408,165.982 295.075,165.648 293,163.5C 292.333,149.167 292.333,134.833 293,120.5C 293.567,116.757 295.4,115.757 298.5,117.5 Z"/></g>
<g><path style="opacity:1" fill="#ff6c57" d="M 295.5,120.5 C 296.5,120.5 297.5,120.5 298.5,120.5C 297.754,124.31 296.754,124.31 295.5,120.5 Z"/></g>
<g><path style="opacity:1" fill="#ff9583" d="M 213.5,124.5 C 213.813,128.042 213.479,131.375 212.5,134.5C 212.5,132.5 212.5,130.5 212.5,128.5C 212.5,127.167 212.5,125.833 212.5,124.5C 212.5,124.167 212.5,123.833 212.5,123.5C 211.602,122.842 210.602,122.176 209.5,121.5C 209.624,120.893 209.957,120.56 210.5,120.5C 211.167,120.5 211.833,120.5 212.5,120.5C 213.363,119.537 214.03,119.537 214.5,120.5C 213.754,121.736 213.421,123.07 213.5,124.5 Z"/></g>
<g><path style="opacity:1" fill="#ff6c55" d="M 245.5,119.5 C 245.631,120.239 245.464,120.906 245,121.5C 242.872,118.826 241.039,118.993 239.5,122C 239.645,122.772 239.978,123.439 240.5,124C 242.066,124.765 243.399,124.598 244.5,123.5C 245.496,136.656 245.829,149.99 245.5,163.5C 245.5,164.167 245.167,164.5 244.5,164.5C 241.941,164.802 239.607,164.468 237.5,163.5C 238.405,162.298 238.405,160.964 237.5,159.5C 236.737,158.732 235.737,158.232 234.5,158C 235.167,157.667 235.833,157.333 236.5,157C 236.272,156.601 235.938,156.435 235.5,156.5C 235.5,156.167 235.5,155.833 235.5,155.5C 232.9,151.299 230.566,146.966 228.5,142.5C 229.167,142.833 229.833,143.167 230.5,143.5C 230.427,145.027 231.094,146.027 232.5,146.5C 234.314,148.764 236.147,151.097 238,153.5C 237.815,143.173 237.815,132.839 238,122.5C 238.111,118.047 240.277,116.213 244.5,117C 245.252,117.671 245.586,118.504 245.5,119.5 Z"/></g>
<g><path style="opacity:0.192" fill="#ffdad6" d="M 245.5,119.5 C 246.404,120.209 246.737,121.209 246.5,122.5C 245.508,122.328 244.842,122.662 244.5,123.5C 243.399,124.598 242.066,124.765 240.5,124C 239.978,123.439 239.645,122.772 239.5,122C 241.039,118.993 242.872,118.826 245,121.5C 245.464,120.906 245.631,120.239 245.5,119.5 Z"/></g>
<g><path style="opacity:1" fill="#fe6651" d="M 241.5,120.5 C 243.465,120.948 243.798,121.948 242.5,123.5C 240.481,122.867 240.147,121.867 241.5,120.5 Z"/></g>
<g><path style="opacity:0.279" fill="#ffcbc3" d="M 265.5,119.5 C 265.56,118.957 265.893,118.624 266.5,118.5C 267.429,119.689 267.762,121.022 267.5,122.5C 268.873,122.657 270.207,122.49 271.5,122C 270.263,121.768 269.263,121.268 268.5,120.5C 269.833,120.5 270.5,119.833 270.5,118.5C 271.167,119.167 271.833,119.833 272.5,120.5C 272.795,122.735 272.461,124.735 271.5,126.5C 271.737,125.209 271.404,124.209 270.5,123.5C 269.761,123.369 269.094,123.536 268.5,124C 269.598,124.77 269.598,125.603 268.5,126.5C 267.167,136.167 267.167,145.833 268.5,155.5C 268.5,156.833 268.5,158.167 268.5,159.5C 267.699,161.042 267.366,162.708 267.5,164.5C 266.833,149.5 266.167,134.5 265.5,119.5 Z M 270.5,118.5 C 270.5,119.833 269.833,120.5 268.5,120.5C 268.833,119.5 269.5,118.833 270.5,118.5 Z M 270.5,123.5 C 270.5,124.5 270.5,125.5 270.5,126.5C 269.833,126.5 269.167,126.5 268.5,126.5C 269.598,125.603 269.598,124.77 268.5,124C 269.094,123.536 269.761,123.369 270.5,123.5 Z"/></g>
<g><path style="opacity:0.675" fill="#ffbab0" d="M 250.5,117.5 C 263.323,116.505 276.323,116.171 289.5,116.5C 289.5,118.833 289.5,121.167 289.5,123.5C 287.901,123.768 286.568,123.434 285.5,122.5C 286.5,122.5 287.5,122.5 288.5,122.5C 288.5,120.833 288.5,119.167 288.5,117.5C 275.833,117.5 263.167,117.5 250.5,117.5 Z"/></g>
<g><path style="opacity:0.657" fill="#fe9c90" d="M 244.5,123.5 C 244.842,122.662 245.508,122.328 246.5,122.5C 246.829,136.344 246.496,150.01 245.5,163.5C 245.829,149.99 245.496,136.656 244.5,123.5 Z"/></g>
<g><path style="opacity:0.892" fill="#ff8573" d="M 339.5,123.5 C 340.167,124.833 340.833,126.167 341.5,127.5C 341.5,128.5 341.5,129.5 341.5,130.5C 340.167,137.833 340.167,145.167 341.5,152.5C 340.631,154.717 340.298,157.05 340.5,159.5C 341.791,159.737 342.791,159.404 343.5,158.5C 343.5,158.167 343.5,157.833 343.5,157.5C 343.263,156.209 343.596,155.209 344.5,154.5C 344.023,157.917 345.023,160.584 347.5,162.5C 346.828,163.267 345.995,163.934 345,164.5C 343.791,164.347 342.625,164.014 341.5,163.5C 340.126,163.208 338.793,162.875 337.5,162.5C 338.117,162.389 338.617,162.056 339,161.5C 339.5,148.838 339.667,136.171 339.5,123.5 Z M 343.5,157.5 C 343.5,157.833 343.5,158.167 343.5,158.5C 341.656,157.796 341.156,156.463 342,154.5C 342.232,155.737 342.732,156.737 343.5,157.5 Z M 341.5,163.5 C 341.517,161.972 342.184,161.472 343.5,162C 342.956,162.717 342.289,163.217 341.5,163.5 Z"/></g>
<g><path style="opacity:0.459" fill="#b7bbbf" d="M 51.5,118.5 C 51.7062,121.495 51.0395,124.162 49.5,126.5C 49.5651,123.572 50.2318,120.905 51.5,118.5 Z"/></g>
<g><path style="opacity:0.369" fill="#ffcac3" d="M 356.5,123.5 C 357.568,122.566 358.901,122.232 360.5,122.5C 360.802,125.059 360.468,127.393 359.5,129.5C 359.737,128.209 359.404,127.209 358.5,126.5C 358.715,124.821 358.048,123.821 356.5,123.5 Z"/></g>
<g><path style="opacity:0.357" fill="#ffc6bd" d="M 368.5,123.5 C 368.573,125.027 367.906,126.027 366.5,126.5C 366.427,124.973 367.094,123.973 368.5,123.5 Z"/></g>
<g><path style="opacity:0.486" fill="#ffbfb5" d="M 179.5,122.5 C 179.433,123.959 179.766,125.292 180.5,126.5C 179.599,127.29 178.932,128.29 178.5,129.5C 178.167,129.5 177.833,129.5 177.5,129.5C 177.41,126.848 178.076,124.515 179.5,122.5 Z"/></g>
<g><path style="opacity:0.263" fill="#ffcdc7" d="M 191.5,123.5 C 192.457,126.029 193.791,128.362 195.5,130.5C 194.209,130.737 193.209,130.404 192.5,129.5C 192.167,128.5 191.5,127.833 190.5,127.5C 190.833,126.167 191.167,124.833 191.5,123.5 Z"/></g>
<g><path style="opacity:0.784" fill="#ffd0c9" d="M 212.5,124.5 C 212.5,125.833 212.5,127.167 212.5,128.5C 211.732,129.263 211.232,130.263 211,131.5C 210.506,129.866 210.34,128.199 210.5,126.5C 211.167,125.833 211.833,125.167 212.5,124.5 Z"/></g>
<g><path style="opacity:1" fill="#ff5b45" d="M 268.5,126.5 C 268.5,127.833 268.5,129.167 268.5,130.5C 269.795,131.031 270.462,132.364 270.5,134.5C 270.821,140.026 270.488,145.36 269.5,150.5C 268.479,150.899 268.146,152.233 268.5,154.5C 268.5,154.833 268.5,155.167 268.5,155.5C 267.167,145.833 267.167,136.167 268.5,126.5 Z"/></g>
<g><path style="opacity:0.004" fill="#fff1f0" d="M 180.5,127.5 C 182.933,128.548 182.933,129.214 180.5,129.5C 180.5,128.833 180.5,128.167 180.5,127.5 Z"/></g>
<g><path style="opacity:0.035" fill="#ffedec" d="M 190.5,127.5 C 190.5,128.167 190.5,128.833 190.5,129.5C 188.599,129.754 187.933,129.42 188.5,128.5C 189.167,128.167 189.833,127.833 190.5,127.5 Z"/></g>
<g><path style="opacity:1" fill="#ff6b55" d="M 210.5,126.5 C 210.34,128.199 210.506,129.866 211,131.5C 211.232,130.263 211.732,129.263 212.5,128.5C 212.5,130.5 212.5,132.5 212.5,134.5C 212.5,139.167 212.5,143.833 212.5,148.5C 212.66,150.199 212.494,151.866 212,153.5C 211.333,149.5 210.667,149.5 210,153.5C 209.176,144.324 209.343,135.324 210.5,126.5 Z"/></g>
<g><path style="opacity:0.42" fill="#ffd0cb" d="M 268.5,126.5 C 269.167,126.5 269.833,126.5 270.5,126.5C 270.771,128.38 270.104,129.713 268.5,130.5C 268.5,129.167 268.5,127.833 268.5,126.5 Z"/></g>
<g><path style="opacity:0.471" fill="#ffcdc5" d="M 343.5,124.5 C 343.328,125.492 343.662,126.158 344.5,126.5C 344.817,130.702 344.483,134.702 343.5,138.5C 343.665,135.15 343.498,131.817 343,128.5C 342.667,129.833 342.333,131.167 342,132.5C 341.536,131.906 341.369,131.239 341.5,130.5C 341.5,129.5 341.5,128.5 341.5,127.5C 342.167,126.5 342.833,125.5 343.5,124.5 Z"/></g>
<g><path style="opacity:0.745" fill="#ffb4aa" d="M 356.5,124.5 C 357.167,125.5 357.833,126.5 358.5,127.5C 358.657,128.873 358.49,130.207 358,131.5C 356.648,129.406 356.148,127.073 356.5,124.5 Z"/></g>
<g><path style="opacity:1" fill="#ff6e57" d="M 182.5,124.5 C 183.5,124.833 184.167,125.5 184.5,126.5C 185.833,127.167 187.167,127.833 188.5,128.5C 187.933,129.42 188.599,129.754 190.5,129.5C 191.167,129.5 191.833,129.5 192.5,129.5C 193.209,130.404 194.209,130.737 195.5,130.5C 198.527,134.914 200.194,139.914 200.5,145.5C 200.41,148.152 201.076,150.485 202.5,152.5C 203.434,153.568 203.768,154.901 203.5,156.5C 202.198,158.028 200.531,159.028 198.5,159.5C 197.833,159.5 197.167,159.5 196.5,159.5C 194.055,152.059 192.055,144.392 190.5,136.5C 187.663,134.598 184.329,133.931 180.5,134.5C 180.5,135.833 180.5,137.167 180.5,138.5C 178.807,146.937 176.641,155.27 174,163.5C 171.984,165.608 169.817,165.942 167.5,164.5C 167.369,163.761 167.536,163.094 168,162.5C 169.356,163.38 170.856,163.714 172.5,163.5C 172.5,161.833 172.5,160.167 172.5,158.5C 170.525,158.822 168.858,158.822 167.5,158.5C 167.565,155.572 168.232,152.905 169.5,150.5C 170.924,148.485 171.59,146.152 171.5,143.5C 171.232,141.901 171.566,140.568 172.5,139.5C 173.924,137.485 174.59,135.152 174.5,132.5C 174.81,130.856 175.81,129.856 177.5,129.5C 177.833,129.5 178.167,129.5 178.5,129.5C 179.167,129.5 179.833,129.5 180.5,129.5C 182.933,129.214 182.933,128.548 180.5,127.5C 180.5,127.167 180.5,126.833 180.5,126.5C 179.766,125.292 179.433,123.959 179.5,122.5C 180.117,122.389 180.617,122.056 181,121.5C 181.232,122.737 181.732,123.737 182.5,124.5 Z"/></g>
<g><path style="opacity:1" fill="#ff816f" d="M 270.5,123.5 C 271.404,124.209 271.737,125.209 271.5,126.5C 271.5,129.167 271.5,131.833 271.5,134.5C 271.167,134.5 270.833,134.5 270.5,134.5C 270.462,132.364 269.795,131.031 268.5,130.5C 270.104,129.713 270.771,128.38 270.5,126.5C 270.5,125.5 270.5,124.5 270.5,123.5 Z"/></g>
<g><path style="opacity:1" fill="#fe5c46" d="M 343.5,138.5 C 343.5,140.167 343.5,141.833 343.5,143.5C 343.665,146.518 343.498,149.518 343,152.5C 342.193,148.551 341.693,148.551 341.5,152.5C 340.167,145.167 340.167,137.833 341.5,130.5C 341.369,131.239 341.536,131.906 342,132.5C 342.333,131.167 342.667,129.833 343,128.5C 343.498,131.817 343.665,135.15 343.5,138.5 Z"/></g>
<g><path style="opacity:0.392" fill="#ffc2b9" d="M 365.5,128.5 C 365.573,130.027 364.906,131.027 363.5,131.5C 363.427,129.973 364.094,128.973 365.5,128.5 Z"/></g>
<g><path style="opacity:0.557" fill="#febdb4" d="M 181.5,132.5 C 180.957,132.44 180.624,132.107 180.5,131.5C 183.768,130.513 187.102,130.18 190.5,130.5C 190.5,131.5 190.5,132.5 190.5,133.5C 187.287,133.81 184.287,133.477 181.5,132.5 Z"/></g>
<g><path style="opacity:0.386" fill="#ffb9af" d="M 218.5,124.5 C 217.365,125.103 216.365,125.436 215.5,125.5C 214.833,125.167 214.167,124.833 213.5,124.5C 213.421,123.07 213.754,121.736 214.5,120.5C 214.03,119.537 213.363,119.537 212.5,120.5C 211.833,119.167 211.167,119.167 210.5,120.5C 209.957,120.56 209.624,120.893 209.5,121.5C 210.602,122.176 211.602,122.842 212.5,123.5C 210.952,123.821 210.285,124.821 210.5,126.5C 209.343,135.324 209.176,144.324 210,153.5C 210.667,149.5 211.333,149.5 212,153.5C 212.494,151.866 212.66,150.199 212.5,148.5C 213.254,151.023 213.92,153.689 214.5,156.5C 214.258,159.319 214.258,162.319 214.5,165.5C 212.533,165.739 210.699,165.406 209,164.5C 208.333,148.833 208.333,133.167 209,117.5C 210.388,116.446 211.888,116.28 213.5,117C 215.301,119.443 216.968,121.943 218.5,124.5 Z M 210.5,154.5 C 212.147,156.186 212.314,157.853 211,159.5C 210.506,157.866 210.34,156.199 210.5,154.5 Z"/></g>
<g><path style="opacity:0.682" fill="#ffa394" d="M 218.5,124.5 C 222.761,130.693 226.761,137.026 230.5,143.5C 229.833,143.167 229.167,142.833 228.5,142.5C 227.833,142.167 227.167,141.833 226.5,141.5C 223.775,137.732 221.275,133.732 219,129.5C 218.536,130.094 218.369,130.761 218.5,131.5C 216.992,129.819 215.992,127.819 215.5,125.5C 216.365,125.436 217.365,125.103 218.5,124.5 Z"/></g>
<g><path style="opacity:0.043" fill="#fff2f0" d="M 190.5,136.5 C 187.609,135.597 184.609,135.264 181.5,135.5C 181.737,136.791 181.404,137.791 180.5,138.5C 180.5,137.167 180.5,135.833 180.5,134.5C 184.329,133.931 187.663,134.598 190.5,136.5 Z"/></g>
<g><path style="opacity:0.969" fill="#ffa898" d="M 174.5,132.5 C 174.59,135.152 173.924,137.485 172.5,139.5C 172.41,136.848 173.076,134.515 174.5,132.5 Z"/></g>
<g><path style="opacity:0.153" fill="#e8eaeb" d="M 48.5,133.5 C 48.298,135.95 48.6314,138.283 49.5,140.5C 48.2749,139.848 47.6083,138.681 47.5,137C 47.5143,135.615 47.8476,134.449 48.5,133.5 Z"/></g>
<g><path style="opacity:0.694" fill="#ffc7be" d="M 306.5,136.5 C 307.833,137.167 308.833,138.167 309.5,139.5C 307.5,139.5 306.5,138.5 306.5,136.5 Z"/></g>
<g><path style="opacity:0.999" fill="#ff836d" d="M 226.5,141.5 C 228.664,146.5 231.331,151.167 234.5,155.5C 234.5,156.167 234.833,156.5 235.5,156.5C 235.938,156.435 236.272,156.601 236.5,157C 235.833,157.333 235.167,157.667 234.5,158C 235.737,158.232 236.737,158.732 237.5,159.5C 237.167,159.5 236.833,159.5 236.5,159.5C 235.414,159.62 234.747,160.287 234.5,161.5C 234.543,162.416 234.876,163.083 235.5,163.5C 236.167,163.5 236.833,163.5 237.5,163.5C 239.607,164.468 241.941,164.802 244.5,164.5C 240.767,165.821 236.934,165.821 233,164.5C 228.155,153.478 223.321,142.478 218.5,131.5C 218.369,130.761 218.536,130.094 219,129.5C 221.275,133.732 223.775,137.732 226.5,141.5 Z"/></g>
<g><path style="opacity:0.631" fill="#ffc0b7" d="M 322.5,137.5 C 322.5,139.5 321.5,140.5 319.5,140.5C 320.167,139.167 321.167,138.167 322.5,137.5 Z"/></g>
<g><path style="opacity:0.427" fill="#ffc4bb" d="M 365.5,138.5 C 366.906,138.973 367.573,139.973 367.5,141.5C 366.094,141.027 365.427,140.027 365.5,138.5 Z"/></g>
<g><path style="opacity:0.643" fill="#aaaeb5" d="M 88.5,134.5 C 88.3542,138.519 88.0209,142.519 87.5,146.5C 86.5044,142.446 86.8377,138.446 88.5,134.5 Z"/></g>
<g><path style="opacity:0.706" fill="#ffc1b8" d="M 304.5,142.5 C 305.885,143.302 305.718,143.969 304,144.5C 303.235,144.43 302.735,144.097 302.5,143.5C 303.492,143.672 304.158,143.338 304.5,142.5 Z"/></g>
<g><path style="opacity:0.986" fill="#ff9c8c" d="M 359.5,142.5 C 360.5,143.833 361.5,143.833 362.5,142.5C 363.551,143.222 364.218,144.222 364.5,145.5C 362.833,145.5 361.167,145.5 359.5,145.5C 359.5,146.833 359.5,148.167 359.5,149.5C 358.377,147.312 358.377,144.979 359.5,142.5 Z"/></g>
<g><path style="opacity:0.431" fill="#ffc1b7" d="M 230.5,143.5 C 231.906,143.973 232.573,144.973 232.5,146.5C 231.094,146.027 230.427,145.027 230.5,143.5 Z"/></g>
<g><path style="opacity:0.655" fill="#ffbfb5" d="M 300.5,143.5 C 301.659,145.25 303.326,146.25 305.5,146.5C 304.791,147.404 303.791,147.737 302.5,147.5C 301.194,146.533 300.527,145.199 300.5,143.5 Z"/></g>
<g><path style="opacity:0.753" fill="#ffa899" d="M 171.5,143.5 C 171.59,146.152 170.924,148.485 169.5,150.5C 169.41,147.848 170.076,145.515 171.5,143.5 Z"/></g>
<g><path style="opacity:0.345" fill="#ffd2c9" d="M 226.5,141.5 C 227.167,141.833 227.833,142.167 228.5,142.5C 230.566,146.966 232.9,151.299 235.5,155.5C 235.167,155.5 234.833,155.5 234.5,155.5C 231.331,151.167 228.664,146.5 226.5,141.5 Z"/></g>
<g><path style="opacity:0.949" fill="#ff9a8a" d="M 270.5,134.5 C 270.833,134.5 271.167,134.5 271.5,134.5C 271.5,140.833 271.5,147.167 271.5,153.5C 271.737,154.791 271.404,155.791 270.5,156.5C 270.5,156.167 270.5,155.833 270.5,155.5C 270.371,153.784 270.038,152.117 269.5,150.5C 270.488,145.36 270.821,140.026 270.5,134.5 Z"/></g>
<g><path style="opacity:0.729" fill="#ffaa9d" d="M 200.5,145.5 C 201.924,147.515 202.59,149.848 202.5,152.5C 201.076,150.485 200.41,148.152 200.5,145.5 Z"/></g>
<g><path style="opacity:0.482" fill="#ffcdc6" d="M 343.5,143.5 C 344.482,146.962 344.815,150.629 344.5,154.5C 343.596,155.209 343.263,156.209 343.5,157.5C 342.732,156.737 342.232,155.737 342,154.5C 341.156,156.463 341.656,157.796 343.5,158.5C 342.791,159.404 341.791,159.737 340.5,159.5C 340.298,157.05 340.631,154.717 341.5,152.5C 341.693,148.551 342.193,148.551 343,152.5C 343.498,149.518 343.665,146.518 343.5,143.5 Z"/></g>
<g><path style="opacity:0.6" fill="#ffc6bd" d="M 118.5,121.5 C 118.557,140.842 118.223,160.175 117.5,179.5C 117.5,182.167 117.5,184.833 117.5,187.5C 117.672,188.492 117.338,189.158 116.5,189.5C 116.537,166.872 117.204,144.206 118.5,121.5 Z"/></g>
<g><path style="opacity:0.227" fill="#ffcec8" d="M 269.5,150.5 C 270.038,152.117 270.371,153.784 270.5,155.5C 269.833,155.167 269.167,154.833 268.5,154.5C 268.146,152.233 268.479,150.899 269.5,150.5 Z"/></g>
<g><path style="opacity:0.01" fill="#e0e1e3" d="M 87.5,146.5 C 88.4824,150.316 89.1491,154.316 89.5,158.5C 87.7501,154.817 87.0834,150.817 87.5,146.5 Z"/></g>
<g><path style="opacity:0.302" fill="#ffcfc8" d="M 358.5,154.5 C 357.833,155.5 357.167,156.5 356.5,157.5C 356.201,155.396 356.534,153.396 357.5,151.5C 358.386,152.325 358.719,153.325 358.5,154.5 Z"/></g>
<g><path style="opacity:0.024" fill="#d1d4d6" d="M 63.5,147.5 C 65.4023,150.337 66.069,153.671 65.5,157.5C 64.7632,154.275 64.0965,150.941 63.5,147.5 Z"/></g>
<g><path style="opacity:0.435" fill="#ffccc5" d="M 359.5,152.5 C 360.473,154.948 360.806,157.615 360.5,160.5C 359.609,159.89 358.609,159.557 357.5,159.5C 358.234,158.292 358.567,156.959 358.5,155.5C 359.404,154.791 359.737,153.791 359.5,152.5 Z"/></g>
<g><path style="opacity:0.133" fill="#ffdeda" d="M 167.5,158.5 C 168.858,158.822 170.525,158.822 172.5,158.5C 172.5,160.167 172.5,161.833 172.5,163.5C 170.856,163.714 169.356,163.38 168,162.5C 167.536,163.094 167.369,163.761 167.5,164.5C 166.167,162.5 166.167,160.5 167.5,158.5 Z"/></g>
<g><path style="opacity:0.588" fill="#ffd9d2" d="M 203.5,156.5 C 204.404,157.209 204.737,158.209 204.5,159.5C 203.833,160.5 203.167,161.5 202.5,162.5C 202.5,161.5 202.5,160.5 202.5,159.5C 201.5,159.5 200.5,159.5 199.5,159.5C 199.5,160.5 199.5,161.5 199.5,162.5C 198.596,161.791 198.263,160.791 198.5,159.5C 200.531,159.028 202.198,158.028 203.5,156.5 Z"/></g>
<g><path style="opacity:0.439" fill="#ffc4bc" d="M 271.5,153.5 C 272.473,155.948 272.806,158.615 272.5,161.5C 272.167,161.5 271.833,161.5 271.5,161.5C 271.167,160.833 270.833,160.167 270.5,159.5C 270.5,158.5 270.5,157.5 270.5,156.5C 271.404,155.791 271.737,154.791 271.5,153.5 Z"/></g>
<g><path style="opacity:1" fill="#fe6651" d="M 169.5,159.5 C 171.465,159.948 171.798,160.948 170.5,162.5C 168.481,161.867 168.147,160.867 169.5,159.5 Z"/></g>
<g><path style="opacity:0.027" fill="#ffe3e0" d="M 236.5,159.5 C 235.766,160.708 235.433,162.041 235.5,163.5C 234.876,163.083 234.543,162.416 234.5,161.5C 234.747,160.287 235.414,159.62 236.5,159.5 Z"/></g>
<g><path style="opacity:0.992" fill="#ff6a53" d="M 337.5,162.5 C 338.793,162.875 340.126,163.208 341.5,163.5C 342.625,164.014 343.791,164.347 345,164.5C 345.995,163.934 346.828,163.267 347.5,162.5C 348.209,161.596 349.209,161.263 350.5,161.5C 352.176,162.183 352.843,163.517 352.5,165.5C 345.833,165.5 339.167,165.5 332.5,165.5C 331.986,160.133 333.652,159.133 337.5,162.5 Z M 341.5,163.5 C 342.289,163.217 342.956,162.717 343.5,162C 342.184,161.472 341.517,161.972 341.5,163.5 Z"/></g>
<g><path style="opacity:0.169" fill="#ffddda" d="M 350.5,161.5 C 351.209,160.596 352.209,160.263 353.5,160.5C 353.784,162.415 353.451,164.081 352.5,165.5C 352.843,163.517 352.176,162.183 350.5,161.5 Z"/></g>
<g><path style="opacity:0.933" fill="#ff9b8a" d="M 355.5,158.5 C 355.833,158.5 356.167,158.5 356.5,158.5C 356.5,159.167 356.833,159.5 357.5,159.5C 358.609,159.557 359.609,159.89 360.5,160.5C 362.176,164.833 360.509,166.5 355.5,165.5C 355.5,163.167 355.5,160.833 355.5,158.5 Z"/></g>
<g><path style="opacity:0.945" fill="#ff9d8c" d="M 196.5,159.5 C 197.167,159.5 197.833,159.5 198.5,159.5C 198.263,160.791 198.596,161.791 199.5,162.5C 200.5,162.5 201.5,162.5 202.5,162.5C 203.167,161.5 203.833,160.5 204.5,159.5C 205.275,161.388 205.275,163.388 204.5,165.5C 199.213,166.862 196.546,164.862 196.5,159.5 Z"/></g>
<g><path style="opacity:1" fill="#ff6f5b" d="M 202.5,162.5 C 201.5,162.5 200.5,162.5 199.5,162.5C 199.5,161.5 199.5,160.5 199.5,159.5C 200.5,159.5 201.5,159.5 202.5,159.5C 202.5,160.5 202.5,161.5 202.5,162.5 Z"/></g>
<g><path style="opacity:0.91" fill="#ff8b78" d="M 268.5,159.5 C 269.167,159.5 269.833,159.5 270.5,159.5C 270.833,160.167 271.167,160.833 271.5,161.5C 271.833,161.5 272.167,161.5 272.5,161.5C 273.653,162.313 273.653,163.313 272.5,164.5C 270.701,165.788 269.035,165.788 267.5,164.5C 267.366,162.708 267.699,161.042 268.5,159.5 Z"/></g>
<g><path style="opacity:0.286" fill="#ffd6d0" d="M 271.5,161.5 C 271.672,162.492 271.338,163.158 270.5,163.5C 270.44,164.043 270.107,164.376 269.5,164.5C 268.614,163.675 268.281,162.675 268.5,161.5C 269.5,161.5 270.5,161.5 271.5,161.5 Z"/></g>
<g><path style="opacity:0.686" fill="#afb2b7" d="M 65.5,159.5 C 66.5983,160.601 66.765,161.934 66,163.5C 62.5706,167.439 58.7372,170.772 54.5,173.5C 57.7961,169.702 61.2961,166.036 65,162.5C 65.4828,161.552 65.6495,160.552 65.5,159.5 Z"/></g>
<g><path style="opacity:0.29" fill="#cacdd0" d="M 92.5,167.5 C 93.9063,167.973 94.573,168.973 94.5,170.5C 93.0937,170.027 92.427,169.027 92.5,167.5 Z"/></g>
<g><path style="opacity:0.161" fill="#e8e9ea" d="M 54.5,173.5 C 53.7659,174.708 53.4326,176.041 53.5,177.5C 52.8761,177.083 52.5427,176.416 52.5,175.5C 52.7472,174.287 53.4138,173.62 54.5,173.5 Z"/></g>
<g><path style="opacity:0.243" fill="#d0d2d5" d="M 95.5,172.5 C 96.9063,172.973 97.573,173.973 97.5,175.5C 96.0937,175.027 95.427,174.027 95.5,172.5 Z"/></g>
<g><path style="opacity:1" fill="#d73429" d="M 162.5,180.5 C 162.5,183.5 162.5,186.5 162.5,189.5C 151.32,184.744 139.653,183.244 127.5,185C 124.321,186.461 120.988,187.295 117.5,187.5C 117.5,184.833 117.5,182.167 117.5,179.5C 132.697,172.722 147.697,173.056 162.5,180.5 Z"/></g>
<g><path style="opacity:0.588" fill="#ef9890" d="M 163.5,176.5 C 163.646,180.956 163.646,185.622 163.5,190.5C 162.833,190.5 162.5,190.167 162.5,189.5C 162.5,186.5 162.5,183.5 162.5,180.5C 162.232,178.901 162.566,177.568 163.5,176.5 Z"/></g>
<g><path style="opacity:1" fill="#fd6049" d="M 162.5,189.5 C 162.5,190.167 162.833,190.5 163.5,190.5C 170.522,194.188 175.855,199.521 179.5,206.5C 179.427,208.027 180.094,209.027 181.5,209.5C 182.338,209.842 182.672,210.508 182.5,211.5C 171.036,213.159 159.369,214.159 147.5,214.5C 140.5,214.5 133.5,214.5 126.5,214.5C 126.5,227.833 126.5,241.167 126.5,254.5C 142.5,254.5 158.5,254.5 174.5,254.5C 177.698,253.964 180.365,254.631 182.5,256.5C 171.617,277.446 154.283,286.613 130.5,284C 121.427,282.715 113.76,278.881 107.5,272.5C 106.738,270.738 105.404,269.738 103.5,269.5C 89.3087,253.371 85.8087,235.038 93,214.5C 93.941,212.273 95.1077,210.273 96.5,208.5C 97.9063,208.027 98.573,207.027 98.5,205.5C 99.9063,205.027 100.573,204.027 100.5,202.5C 104.669,196.658 110.002,192.325 116.5,189.5C 117.338,189.158 117.672,188.492 117.5,187.5C 120.988,187.295 124.321,186.461 127.5,185C 139.653,183.244 151.32,184.744 162.5,189.5 Z"/></g>
<g><path style="opacity:0.161" fill="#cecfd4" d="M 105.5,184.5 C 107.552,185.053 107.885,186.053 106.5,187.5C 106.443,186.391 106.11,185.391 105.5,184.5 Z"/></g>
<g><path style="opacity:0.498" fill="#ffbeb3" d="M 100.5,202.5 C 100.573,204.027 99.9063,205.027 98.5,205.5C 98.427,203.973 99.0937,202.973 100.5,202.5 Z"/></g>
<g><path style="opacity:0.439" fill="#ffbfb5" d="M 98.5,205.5 C 98.573,207.027 97.9063,208.027 96.5,208.5C 96.427,206.973 97.0937,205.973 98.5,205.5 Z"/></g>
<g><path style="opacity:0.42" fill="#ffbeb4" d="M 179.5,206.5 C 180.906,206.973 181.573,207.973 181.5,209.5C 180.094,209.027 179.427,208.027 179.5,206.5 Z"/></g>
<g><path style="opacity:0.078" fill="#ffd7d1" d="M 182.5,211.5 C 183.404,212.209 183.737,213.209 183.5,214.5C 171.5,214.5 159.5,214.5 147.5,214.5C 159.369,214.159 171.036,213.159 182.5,211.5 Z"/></g>
<g><path style="opacity:0.709" fill="#ff9586" d="M 153.5,218.5 C 153.176,225.354 153.509,232.021 154.5,238.5C 154.269,241.785 155.603,244.285 158.5,246C 158.272,246.399 157.938,246.565 157.5,246.5C 155.248,246.084 153.748,244.751 153,242.5C 152.177,234.323 152.344,226.323 153.5,218.5 Z"/></g>
<g><path style="opacity:1" fill="#ff6f59" d="M 153.5,218.5 C 154.833,218.5 156.167,218.5 157.5,218.5C 157.5,226.167 157.5,233.833 157.5,241.5C 157.565,241.938 157.399,242.272 157,242.5C 156.066,241.142 155.232,239.808 154.5,238.5C 153.509,232.021 153.176,225.354 153.5,218.5 Z"/></g>
<g><path style="opacity:1" fill="#ff725b" d="M 176.5,241.5 C 175.206,237.777 174.039,237.777 173,241.5C 172.517,240.552 172.351,239.552 172.5,238.5C 172.5,231.833 172.5,225.167 172.5,218.5C 174.167,218.5 175.833,218.5 177.5,218.5C 177.799,226.253 177.466,233.92 176.5,241.5 Z"/></g>
<g><path style="opacity:1" fill="#ff5f49" d="M 182.5,223.5 C 183.815,232.068 183.815,240.735 182.5,249.5C 180.668,250.718 179.668,250.051 179.5,247.5C 179.334,239.16 179.5,230.827 180,222.5C 180.671,223.252 181.504,223.586 182.5,223.5 Z"/></g>
<g><path style="opacity:1" fill="#ff9887" d="M 183.5,218.5 C 184.145,219.812 185.145,220.812 186.5,221.5C 187.696,221.154 187.696,220.654 186.5,220C 187.448,219.517 188.448,219.351 189.5,219.5C 194.876,217.855 197.876,219.855 198.5,225.5C 198.514,227.593 197.848,229.426 196.5,231C 197.416,231.278 198.082,231.778 198.5,232.5C 197.5,232.5 196.5,232.5 195.5,232.5C 195.5,231.5 195.5,230.5 195.5,229.5C 194.5,229.5 193.5,229.5 192.5,229.5C 196.968,225.413 196.301,222.913 190.5,222C 188.845,223.444 188.178,225.278 188.5,227.5C 187.698,226.048 187.198,224.382 187,222.5C 186.503,224.81 186.337,227.143 186.5,229.5C 185.732,228.737 185.232,227.737 185,226.5C 184.195,229.696 184.362,232.696 185.5,235.5C 184.325,239.15 184.325,242.817 185.5,246.5C 184.89,247.391 184.557,248.391 184.5,249.5C 183.833,249.5 183.167,249.5 182.5,249.5C 183.815,240.735 183.815,232.068 182.5,223.5C 183.303,222.577 183.47,221.577 183,220.5C 181.665,219.92 180.498,219.587 179.5,219.5C 180.403,217.38 181.737,217.046 183.5,218.5 Z M 192.5,229.5 C 191.167,228.833 189.833,228.167 188.5,227.5C 188.178,225.278 188.845,223.444 190.5,222C 196.301,222.913 196.968,225.413 192.5,229.5 Z"/></g>
<g><path style="opacity:0.357" fill="#ffdbd5" d="M 183.5,218.5 C 185.735,218.205 187.735,218.539 189.5,219.5C 188.448,219.351 187.448,219.517 186.5,220C 187.696,220.654 187.696,221.154 186.5,221.5C 185.145,220.812 184.145,219.812 183.5,218.5 Z"/></g>
<g><path style="opacity:0.328" fill="#fec8bf" d="M 179.5,219.5 C 180.498,219.587 181.665,219.92 183,220.5C 183.47,221.577 183.303,222.577 182.5,223.5C 181.504,223.586 180.671,223.252 180,222.5C 179.5,230.827 179.334,239.16 179.5,247.5C 178.167,238.167 178.167,228.833 179.5,219.5 Z"/></g>
<g><path style="opacity:1" fill="#ffa594" d="M 189.5,232.5 C 191.5,233.167 193.5,233.833 195.5,234.5C 192.812,234.166 190.479,234.832 188.5,236.5C 188.5,235.167 187.833,234.5 186.5,234.5C 186.973,233.094 187.973,232.427 189.5,232.5 Z"/></g>
<g><path style="opacity:1" fill="#ff836d" d="M 188.5,227.5 C 189.833,228.167 191.167,228.833 192.5,229.5C 193.5,229.5 194.5,229.5 195.5,229.5C 195.5,230.5 195.5,231.5 195.5,232.5C 196.5,232.5 197.5,232.5 198.5,232.5C 204.072,236.595 204.905,241.595 201,247.5C 197.828,250.302 194.328,250.969 190.5,249.5C 188.955,248.36 187.288,247.36 185.5,246.5C 184.325,242.817 184.325,239.15 185.5,235.5C 185.5,234.833 185.833,234.5 186.5,234.5C 187.833,234.5 188.5,235.167 188.5,236.5C 186.713,245.182 189.88,247.849 198,244.5C 200.519,240.246 199.685,236.913 195.5,234.5C 193.5,233.833 191.5,233.167 189.5,232.5C 188.306,231.728 187.306,230.728 186.5,229.5C 186.337,227.143 186.503,224.81 187,222.5C 187.198,224.382 187.698,226.048 188.5,227.5 Z M 195.5,234.5 C 199.685,236.913 200.519,240.246 198,244.5C 189.88,247.849 186.713,245.182 188.5,236.5C 190.479,234.832 192.812,234.166 195.5,234.5 Z"/></g>
<g><path style="opacity:0.765" fill="#ffa89c" d="M 138.5,241.5 C 137.5,241.5 136.5,241.5 135.5,241.5C 136.171,244.986 135.171,247.653 132.5,249.5C 131.883,249.389 131.383,249.056 131,248.5C 130.333,238.833 130.333,229.167 131,219.5C 134.092,217.818 136.259,218.651 137.5,222C 136.629,227.865 136.296,233.698 136.5,239.5C 137.243,240.182 137.909,240.849 138.5,241.5 Z"/></g>
<g><path style="opacity:1" fill="#ff5d47" d="M 131.5,222.5 C 133.229,223.641 134.229,225.307 134.5,227.5C 133.266,233.107 132.433,238.774 132,244.5C 131.5,237.174 131.334,229.841 131.5,222.5 Z"/></g>
<g><path style="opacity:0.549" fill="#ffc6be" d="M 138.5,242.5 C 138.5,242.167 138.5,241.833 138.5,241.5C 140.403,241.796 142.07,242.463 143.5,243.5C 141.643,244.765 139.976,244.432 138.5,242.5 Z"/></g>
<g><path style="opacity:0.829" fill="#ffb9af" d="M 154.5,238.5 C 155.232,239.808 156.066,241.142 157,242.5C 157.399,242.272 157.565,241.938 157.5,241.5C 158.596,243.103 159.93,244.603 161.5,246C 163.509,245.406 165.509,245.573 167.5,246.5C 170.059,244.298 171.725,241.632 172.5,238.5C 172.351,239.552 172.517,240.552 173,241.5C 174.039,237.777 175.206,237.777 176.5,241.5C 175.797,243.716 174.464,245.549 172.5,247C 169.789,247.773 167.289,248.94 165,250.5C 162.385,249.25 159.885,247.917 157.5,246.5C 157.938,246.565 158.272,246.399 158.5,246C 155.603,244.285 154.269,241.785 154.5,238.5 Z"/></g>
<g><path style="opacity:1" fill="#ff7962" d="M 138.5,241.5 C 138.5,241.833 138.5,242.167 138.5,242.5C 139.976,244.432 141.643,244.765 143.5,243.5C 147.347,243.195 150.347,244.528 152.5,247.5C 152.023,248.478 151.357,249.311 150.5,250C 144.319,250.819 138.319,250.653 132.5,249.5C 135.171,247.653 136.171,244.986 135.5,241.5C 136.5,241.5 137.5,241.5 138.5,241.5 Z"/></g>
<g><path style="opacity:0.075" fill="#feefee" d="M 138.5,242.5 C 138.361,244.337 137.694,244.67 136.5,243.5C 136.957,242.702 137.624,242.369 138.5,242.5 Z"/></g>
<g><path style="opacity:0.278" fill="#fecfc9" d="M 185.5,246.5 C 187.288,247.36 188.955,248.36 190.5,249.5C 188.5,249.5 186.5,249.5 184.5,249.5C 184.557,248.391 184.89,247.391 185.5,246.5 Z"/></g>
<g><path style="opacity:0.118" fill="#ffeae7" d="M 174.5,254.5 C 177.287,253.523 180.287,253.19 183.5,253.5C 183.737,254.791 183.404,255.791 182.5,256.5C 180.365,254.631 177.698,253.964 174.5,254.5 Z"/></g>
<g><path style="opacity:0.749" fill="#ffbfb3" d="M 103.5,269.5 C 105.404,269.738 106.738,270.738 107.5,272.5C 105.596,272.262 104.262,271.262 103.5,269.5 Z"/></g>
</svg>
